<?xml version="1.0" encoding="utf-8"?>
<!-- Generator: Adobe Illustrator 16.0.0, SVG Export Plug-In . SVG Version: 6.00 Build 0)  -->
<!DOCTYPE svg PUBLIC "-//W3C//DTD SVG 1.1//EN" "http://www.w3.org/Graphics/SVG/1.1/DTD/svg11.dtd">
<svg version="1.1" id="Layer_1" xmlns="http://www.w3.org/2000/svg" xmlns:xlink="http://www.w3.org/1999/xlink" x="0px" y="0px"
	 width="792px" height="114px" viewBox="0 0 792 114" enable-background="new 0 0 792 114" xml:space="preserve">
<g>
	<path fill="#FFD779" d="M48.933,53.677h10.162c4.025,0,6.822-1.431,6.822-5.455c0-4.296-3.005-5.728-6.822-5.728H48.933V53.677z
		 M48.933,34.31h9.82c2.184,0,5.182-1.158,5.182-4.639c0-3.546-2.523-4.704-5.182-4.704h-9.82V34.31z M36.248,15.145h22.776
		c8.391-0.136,17.596,2.048,17.596,12.209c0,4.363-2.589,7.91-6.409,9.818c5.184,1.5,8.387,6.003,8.387,11.529
		c0,11.591-8.522,15.137-18.957,15.137H36.248V15.145z"/>
	<polygon fill="#FFD779" points="104.789,45.698 104.789,63.841 92.106,63.841 92.106,45.698 74.375,15.146 88.764,15.146 
		98.447,34.922 108.131,15.146 122.523,15.146 	"/>
	<path fill="#FFD779" d="M167.605,43.721c0,14.117-6.48,21.143-21.212,21.143c-14.731,0-21.209-7.026-21.209-21.143V15.146h12.684
		v29.325c0,6.274,2.318,9.481,8.526,9.481s8.524-3.207,8.524-9.481V15.146h12.688V43.721z"/>
	<rect x="187.8" y="15.102" fill="#FFFFFF" width="11.596" height="48.789"/>
	<path fill="#FFFFFF" d="M300.423,37.479c-1.09-1.161-2.863-1.431-4.702-1.431c-4.641,0-8.254,4.363-8.254,8.863v1.227
		L300.423,37.479z M290.604,52.484c1.227,1.773,3.684,2.523,5.73,2.523c3.75,0,7.299-1.773,10.162-4.092l5.595,8.187
		c-4.638,3.205-9.894,5.455-15.96,5.455c-11.188,0-18.895-9.753-18.895-18.211c0-10.437,8.32-19.165,18.416-19.165
		c7.366,0,14.254,4.228,17.532,10.774L290.604,52.484z"/>
	<path fill="#FFFFFF" d="M378.583,37.479c-1.089-1.161-2.863-1.431-4.706-1.431c-4.637,0-8.253,4.363-8.253,8.863v1.227
		L378.583,37.479z M368.764,52.484c1.227,1.773,3.681,2.523,5.727,2.523c3.753,0,7.299-1.773,10.165-4.092l5.59,8.187
		c-4.637,3.205-9.886,5.455-15.959,5.455c-11.185,0-18.895-9.753-18.895-18.211c0-10.437,8.322-19.165,18.417-19.165
		c7.366,0,14.255,4.228,17.53,10.774L368.764,52.484z"/>
	<path fill="#FFFFFF" d="M490.575,37.479c-1.092-1.161-2.868-1.431-4.706-1.431c-4.64,0-8.26,4.363-8.26,8.863v1.227L490.575,37.479
		z M480.754,52.484c1.224,1.773,3.684,2.523,5.725,2.523c3.757,0,7.3-1.773,10.161-4.092l5.597,8.187
		c-4.637,3.205-9.89,5.455-15.964,5.455c-11.185,0-18.893-9.753-18.893-18.211c0-10.437,8.321-19.165,18.414-19.165
		c7.369,0,14.261,4.228,17.535,10.774L480.754,52.484z"/>
	<path fill="#FFFFFF" d="M515.037,32.5h0.137c2.731-4.095,6.208-5.319,9.145-5.319c9.617,0,12.822,6.136,12.822,14.869v21.84
		h-10.643v-21.09c0-4.092-2.111-6.069-5.321-6.069c-3.203,0-5.318,1.977-5.318,6.069v21.09h-10.638V28.27l9.816-0.202V32.5z"/>
	<path fill="#FFFFFF" d="M213.209,32.5h0.138c2.727-4.095,6.207-5.319,9.139-5.319c9.618,0,12.822,6.136,12.822,14.869v21.84
		h-10.641v-21.09c0-4.092-2.113-6.069-5.322-6.069c-3.202,0-5.317,1.977-5.317,6.069v21.09h-10.642V28.27l9.822-0.202V32.5z"/>
	<path fill="#FFFFFF" d="M403.072,32.5h0.138c2.73-4.095,6.207-5.319,9.142-5.319c9.617,0,12.82,6.136,12.82,14.869v21.84h-10.639
		v-21.09c0-4.092-2.113-6.069-5.32-6.069c-3.206,0-5.32,1.977-5.32,6.069v21.09h-10.64V28.27l9.819-0.202V32.5z"/>
	<path fill="#FFFFFF" d="M604.215,29.022c-2.66-2.321-4.707-3.548-8.321-3.548c-2.047,0-5.111,1.227-5.111,3.684
		c0,7.435,20.938,2.592,20.938,19.78c0,10.506-8.185,15.622-17.938,15.622c-5.801,0-11.801-1.707-16.238-5.526l6.961-8.868
		c2.185,2.526,5.321,3.753,8.801,3.753c2.385,0,6.137-1.161,6.137-4.164c0-7.297-20.938-2.93-20.938-19.711
		c0-9.274,8.592-14.459,17.048-14.459c5.39,0,10.846,1.978,15.007,5.389L604.215,29.022z"/>
	<path fill="#FFFFFF" d="M608.391,37.232l-0.038-8.868h5.635v-8.203l10.638-2.845v11.048h6.071v8.868h-6.071v12.279
		c0,3.478,2.656,4.432,5.661,4.432c0.95,0,2.318-0.204,2.795-0.408l-0.045,10.504c-0.474,0.066-4.116,0.137-4.663,0.137
		c-9.409,0-14.386-4.502-14.386-13.848V37.232H608.391z"/>
	<path fill="#FFFFFF" d="M537.839,37.232l-0.038-8.868h5.631v-8.203l10.643-2.845v11.048h6.071v8.868h-6.071v12.279
		c0,3.478,2.658,4.432,5.663,4.432c0.948,0,2.316-0.204,2.793-0.408l-0.045,10.504c-0.479,0.066-4.116,0.137-4.661,0.137
		c-9.416,0-14.393-4.502-14.393-13.848V37.232H537.839z"/>
	<path fill="#FFFFFF" d="M655.446,28.068h10.641v35.824h-9.824v-5.2h-0.132c-2.048,4.638-6.213,5.865-9.146,5.865
		c-9.613,0-12.821-6.136-12.821-14.872V28.068h10.645v20.867c0,4.095,2.113,6.072,5.316,6.072c3.206,0,5.321-1.977,5.321-6.072
		V28.068z"/>
	<path fill="#FFFFFF" d="M446.079,55.007c4.774,0,8.524-4.229,8.524-9.139c0-4.911-3.75-9.139-8.524-9.139
		c-4.776,0-8.529,4.228-8.529,9.139C437.55,50.777,441.303,55.007,446.079,55.007 M454.194,15.103h10.937l0.042,48.699
		l-10.295,0.087v-4.377h-0.134c-1.98,3.68-5.871,5.047-9.964,5.047c-10.024,0-17.865-8.187-17.865-18.214
		c0-10.162,7.433-19.165,17.865-19.165c3.345,0,7.098,1.225,9.414,3.546V15.103z"/>
	<path fill="#FFFFFF" d="M256.425,55.007c4.775,0,8.526-4.229,8.526-9.139c0-4.911-3.75-9.139-8.526-9.139
		c-4.776,0-8.524,4.228-8.524,9.139C247.9,50.777,251.648,55.007,256.425,55.007 M264.542,15.103h10.933l0.042,48.699l-10.293,0.087
		v-4.377h-0.136c-1.977,3.68-5.865,5.047-9.957,5.047c-10.027,0-17.872-8.187-17.872-18.214c0-10.162,7.435-19.165,17.872-19.165
		c3.342,0,7.09,1.225,9.412,3.546V15.103z"/>
	<path fill="#FFFFFF" d="M334.382,36.507c-4.773,0-8.524,4.229-8.524,9.141c0,4.911,3.751,9.139,8.524,9.139
		c4.776,0,8.524-4.228,8.524-9.139C342.907,40.737,339.158,36.507,334.382,36.507 M326.264,77.41h-10.935l-0.039-49.695
		l10.295-0.087v4.38h0.133c1.979-3.685,5.868-5.049,9.96-5.049c10.024,0,17.87,8.187,17.87,18.214
		c0,10.162-7.432,19.165-17.87,19.165c-3.342,0-7.095-1.227-9.414-3.549V77.41z"/>
	<path fill="#FFFFFF" d="M686.813,55.007c4.776,0,8.524-4.229,8.524-9.139c0-4.911-3.748-9.139-8.524-9.139
		c-4.774,0-8.524,4.228-8.524,9.139C678.288,50.777,682.038,55.007,686.813,55.007 M694.934,15.103h10.933l0.042,48.699
		l-10.295,0.087v-4.377h-0.138c-1.983,3.68-5.868,5.047-9.956,5.047c-10.029,0-17.874-8.187-17.874-18.214
		c0-10.162,7.438-19.165,17.874-19.165c3.34,0,7.093,1.225,9.414,3.546V15.103z"/>
	<polygon fill="#FFFFFF" points="726.533,50.05 735.228,28.584 745.752,31.252 724.497,78.817 713.064,77.694 720.847,62.052 
		707.1,31.183 717.764,28.584 	"/>
	<path fill="#FFFFFF" d="M398.73,88.336c0,3.709,0.7,6.598,2.108,8.667c1.405,2.068,3.352,3.106,5.835,3.106
		c2.484,0,4.432-1.038,5.839-3.106c1.406-2.069,2.109-4.958,2.109-8.667c0-3.722-0.703-6.615-2.109-8.684
		c-1.407-2.07-3.354-3.103-5.839-3.103c-2.483,0-4.43,1.033-5.835,3.103C399.431,81.721,398.73,84.614,398.73,88.336
		 M395.586,88.336c0-4.401,1.005-7.911,3.02-10.529c2.013-2.618,4.701-3.928,8.068-3.928s6.06,1.305,8.069,3.909
		c2.015,2.606,3.02,6.123,3.02,10.548c0,4.416-1.005,7.934-3.02,10.559c-2.01,2.625-4.702,3.937-8.069,3.937
		c-3.354,0-6.041-1.312-8.061-3.937C396.595,96.27,395.586,92.752,395.586,88.336"/>
	<polygon fill="#FFFFFF" points="423.306,102.359 423.306,74.335 427.714,74.335 440.581,96.188 440.581,74.335 443.496,74.335 
		443.496,102.359 441.094,102.359 426.203,77.552 426.203,102.359 	"/>
	<polygon fill="#FFFFFF" points="451.198,102.359 451.198,74.335 454.375,74.335 454.375,99.691 466.883,99.691 466.883,102.359 	
		"/>
	<rect x="471.387" y="74.335" fill="#FFFFFF" width="3.138" height="28.021"/>
	<polygon fill="#FFFFFF" points="482.249,102.359 482.249,74.335 486.657,74.335 499.524,96.188 499.524,74.335 502.438,74.335 
		502.438,102.359 500.033,102.359 485.141,77.552 485.141,102.359 	"/>
	<polygon fill="#FFFFFF" points="509.947,102.359 509.947,74.335 526.486,74.335 526.486,76.984 513.032,76.984 513.032,86.351 
		522.568,86.351 522.568,88.942 513.032,88.942 513.032,99.691 527.146,99.691 527.146,102.359 	"/>
	<path fill="#FFFFFF" d="M562.397,93.955c-0.679,2.953-1.844,5.173-3.493,6.651c-1.642,1.484-3.771,2.225-6.385,2.225
		c-3.441,0-6.1-1.26-7.975-3.774c-1.873-2.519-2.81-6.09-2.81-10.721c0-4.504,0.943-8.037,2.826-10.604
		c1.885-2.567,4.458-3.851,7.713-3.851c2.599,0,4.705,0.704,6.321,2.11c1.615,1.406,2.71,3.491,3.29,6.254l-2.818,0.736
		c-0.441-2.094-1.222-3.695-2.343-4.806c-1.129-1.109-2.517-1.666-4.165-1.666c-2.458,0-4.358,1.034-5.687,3.103
		c-1.33,2.071-1.993,5.017-1.993,8.836c0,3.735,0.672,6.619,2.023,8.65c1.35,2.03,3.26,3.045,5.734,3.045
		c1.828,0,3.347-0.59,4.547-1.771c1.206-1.177,1.998-2.856,2.376-5.041L562.397,93.955z"/>
	<path fill="#FFFFFF" d="M568.28,88.336c0,3.709,0.705,6.598,2.111,8.667c1.41,2.068,3.35,3.106,5.838,3.106
		c2.483,0,4.427-1.038,5.84-3.106c1.406-2.069,2.108-4.958,2.108-8.667c0-3.722-0.702-6.615-2.108-8.684
		c-1.413-2.07-3.356-3.103-5.84-3.103c-2.488,0-4.428,1.033-5.838,3.103C568.985,81.721,568.28,84.614,568.28,88.336
		 M565.141,88.336c0-4.401,1.005-7.911,3.021-10.529c2.01-2.618,4.699-3.928,8.067-3.928c3.37,0,6.06,1.305,8.069,3.909
		c2.012,2.606,3.021,6.123,3.021,10.548c0,4.416-1.01,7.934-3.021,10.559c-2.01,2.625-4.699,3.937-8.069,3.937
		c-3.354,0-6.043-1.312-8.06-3.937C566.152,96.27,565.141,92.752,565.141,88.336"/>
	<path fill="#FFFFFF" d="M592.787,74.335h3.043v18.068c0,1.262,0.059,2.215,0.175,2.85c0.108,0.637,0.302,1.207,0.563,1.712
		c0.519,1.007,1.323,1.79,2.425,2.35c1.097,0.552,2.382,0.83,3.858,0.83c1.501,0,2.798-0.278,3.895-0.83
		c1.097-0.56,1.908-1.343,2.423-2.35c0.267-0.53,0.457-1.125,0.57-1.788c0.113-0.662,0.17-1.755,0.17-3.282v-17.56h3.066v18.562
		c0,3.243-0.861,5.71-2.58,7.396c-1.725,1.691-4.236,2.538-7.544,2.538c-3.316,0-5.823-0.835-7.52-2.508
		c-1.698-1.67-2.545-4.146-2.545-7.427V74.335z"/>
	<path fill="#FFFFFF" d="M628.263,76.947h-4.805v10.105h4.696c2.887,0,4.967-0.398,6.25-1.194c1.281-0.794,1.915-2.075,1.915-3.842
		c0-1.878-0.565-3.194-1.705-3.944C633.471,77.322,631.353,76.947,628.263,76.947 M620.41,102.359V74.335h7.853
		c3.925,0,6.767,0.59,8.545,1.77c1.77,1.179,2.658,3.055,2.658,5.627c0,1.831-0.48,3.344-1.448,4.543
		c-0.965,1.197-2.422,2.073-4.363,2.629l6.586,13.456h-3.409l-6.168-12.718h-7.205v12.718H620.41z"/>
	<path fill="#FFFFFF" d="M643.309,95.338l2.927-0.968c0.508,1.795,1.368,3.206,2.598,4.231c1.222,1.028,2.634,1.543,4.233,1.543
		c1.781,0,3.201-0.446,4.26-1.335c1.06-0.89,1.592-2.071,1.592-3.548c0-0.87-0.162-1.625-0.472-2.269
		c-0.318-0.645-0.792-1.182-1.422-1.61c-0.908-0.604-2.481-1.312-4.71-2.12c-0.8-0.29-1.395-0.509-1.798-0.661
		c-2.361-0.92-4.021-1.937-4.988-3.045c-0.965-1.11-1.448-2.513-1.448-4.201c0-2.259,0.75-4.069,2.24-5.432
		c1.5-1.363,3.486-2.042,5.975-2.042c2.17,0,4.01,0.587,5.513,1.76c1.507,1.172,2.592,2.869,3.243,5.085l-2.798,0.82
		c-0.452-1.653-1.215-2.913-2.288-3.776c-1.072-0.866-2.403-1.297-3.995-1.297c-1.498,0-2.693,0.412-3.585,1.239
		c-0.89,0.825-1.331,1.94-1.331,3.341c0,0.654,0.149,1.261,0.441,1.815c0.302,0.557,0.767,1.085,1.392,1.589
		c0.618,0.479,2.052,1.128,4.298,1.947c0.717,0.254,1.273,0.454,1.663,0.607c2.665,1.008,4.502,2.113,5.526,3.31
		c1.021,1.202,1.533,2.781,1.533,4.749c0,2.335-0.795,4.21-2.38,5.63c-1.581,1.42-3.683,2.13-6.306,2.13
		c-2.512,0-4.599-0.632-6.262-1.892C645.292,99.678,644.072,97.812,643.309,95.338"/>
	<polygon fill="#FFFFFF" points="667.45,102.359 667.45,74.335 683.986,74.335 683.986,76.984 670.532,76.984 670.532,86.351 
		680.069,86.351 680.069,88.942 670.532,88.942 670.532,99.691 684.652,99.691 684.652,102.359 	"/>
	<path fill="#FFFFFF" d="M687.129,95.338l2.932-0.968c0.502,1.795,1.368,3.206,2.592,4.231c1.225,1.028,2.635,1.543,4.239,1.543
		c1.778,0,3.198-0.446,4.26-1.335c1.059-0.89,1.592-2.071,1.592-3.548c0-0.87-0.163-1.625-0.481-2.269
		c-0.313-0.645-0.787-1.182-1.412-1.61c-0.913-0.604-2.481-1.312-4.716-2.12c-0.795-0.29-1.392-0.509-1.8-0.661
		c-2.358-0.92-4.019-1.937-4.986-3.045c-0.964-1.11-1.443-2.513-1.443-4.201c0-2.259,0.75-4.069,2.241-5.432
		c1.495-1.363,3.486-2.042,5.97-2.042c2.172,0,4.008,0.587,5.515,1.76c1.507,1.172,2.592,2.869,3.243,5.085l-2.8,0.82
		c-0.45-1.653-1.215-2.913-2.288-3.776c-1.07-0.866-2.403-1.297-3.99-1.297c-1.498,0-2.696,0.412-3.586,1.239
		c-0.889,0.825-1.337,1.94-1.337,3.341c0,0.654,0.15,1.261,0.448,1.815c0.292,0.557,0.757,1.085,1.389,1.589
		c0.618,0.479,2.05,1.128,4.298,1.947c0.72,0.254,1.271,0.454,1.663,0.607c2.66,1.008,4.505,2.113,5.526,3.31
		c1.019,1.202,1.533,2.781,1.533,4.749c0,2.335-0.793,4.21-2.375,5.63c-1.585,1.42-3.689,2.13-6.313,2.13
		c-2.512,0-4.602-0.632-6.263-1.892C689.117,99.678,687.896,97.812,687.129,95.338"/>
</g>
</svg>
