<?xml version="1.0" encoding="utf-8"?>
<!-- Generator: Adobe Illustrator 18.1.1, SVG Export Plug-In . SVG Version: 6.00 Build 0)  -->
<svg version="1.1" id="Layer_1" xmlns="http://www.w3.org/2000/svg" xmlns:xlink="http://www.w3.org/1999/xlink" x="0px" y="0px"
	 viewBox="0 0 960 560" enable-background="new 0 0 960 560" xml:space="preserve">
<path d="M506.4,1.1c6.3,1.5,12.6,2.8,18.8,4.4c56.7,14.3,96,75.4,85,132.9c-9.9,51.5-40.6,84.2-91.6,96.9
	c-50.8,12.6-107.5-14.4-130.7-61.4c-28.7-58.3-9.1-124.4,47-157.3c12.9-7.6,27-12.2,41.9-14.3c1.2-0.2,2.3-0.7,3.4-1.1
	C488.9,1.1,497.6,1.1,506.4,1.1z"/>
<path d="M291.7,450.8c0-20.5-0.4-41,0.1-61.5c0.7-27.9,9.8-53.4,25.5-76.2c23.3-33.9,55.2-55.5,95.7-63.7c10.2-2.1,20.9-2.9,31.3-3
	c32.7-0.4,65.3-0.2,98-0.1c67.6,0.2,124.7,41.6,145.9,105.8c5.2,15.8,7.1,32.2,7.2,48.7c0.2,38.3,0,76.6,0.2,114.9
	c0,3.9-1.4,5.7-4.8,7.3c-27.2,13.4-56.2,21.1-85.7,26.9c-36.8,7.1-74,9.7-111.5,8.9c-43.3-1-86-6.1-128.1-15.9
	c-23.4-5.5-46.5-12.4-69.7-18.5c-3.8-1-4.8-2.9-4.8-6.5c0.1-22.3,0.1-44.6,0.1-67C291.3,450.8,291.5,450.8,291.7,450.8z M493,517.4
	c1.1-0.6,1.7-0.8,2-1.1c6.9-10,13.8-20,20.5-30.1c1-1.5,1-3.8,0.8-5.7c-1.1-16.5-2.3-32.9-3.4-49.4c-2.2-32.7-4.5-65.5-6.6-98.2
	c-0.2-3.2-1.5-4.5-4.7-4.4c-5.1,0.1-10.2,0.2-15.2,0c-3.4-0.1-4.2,1.3-4.4,4.5c-1.3,20.5-2.7,40.9-4.1,61.3
	c-1.6,24.6-2.7,49.3-5,73.8c-1,10.8-0.2,20.2,6.8,29C484.9,503.3,488.7,510.5,493,517.4z M494.4,271.2c-8.3,0-16.7-0.2-25,0
	c-7.4,0.2-10.2,4.9-7,11.6c6,12.4,11.8,24.8,18,37.1c0.9,1.7,3.6,3.3,5.6,3.5c5.6,0.5,11.2,0,16.8,0.2c3,0.1,4.5-1,5.7-3.7
	c5.6-12.3,11.5-24.6,17.2-36.9c3.3-7,0.4-11.7-7.4-11.8C510.4,271.1,502.4,271.2,494.4,271.2z"/>
</svg>
