<?xml version="1.0" encoding="utf-8"?>
<!-- Generator: Adobe Illustrator 18.1.1, SVG Export Plug-In . SVG Version: 6.00 Build 0)  -->
<svg version="1.1" id="Layer_1" xmlns="http://www.w3.org/2000/svg" xmlns:xlink="http://www.w3.org/1999/xlink" x="0px" y="0px"
	 viewBox="0 0 960 560" enable-background="new 0 0 960 560" xml:space="preserve">
<path d="M770.7,351.7c-1.5,6.6-2.6,13.3-4.7,19.7c-7,21.9-24.9,37.7-49.7,36.6c-15.9-0.7-15.9-0.1-19.6,15.3
	c-6.3,26.2-15.3,51.4-31.2,73.6c-15.9,22.3-36.7,37.4-64.2,42c-6.5,1.1-13.2,1.4-19.8,1.6c-9.2,0.3-18.4,0.4-27.6,0
	c-7.6-0.4-13.1,0.8-17.7,8.3c-5.9,9.6-15.9,14.2-27.2,14.5c-14,0.4-28,0.6-41.9-0.5c-19.1-1.6-32.8-17.1-33.2-35.7
	c-0.4-18.9,12.8-35.5,31.9-37.4c15.3-1.5,30.9-1.2,46.3-0.3c11.5,0.7,20.7,7.3,26.6,17.5c2.4,4.2,5.5,5.7,10.3,5.6
	c10.5-0.3,21-0.3,31.5,0c28,0.8,48.7-11.8,64-34.3c13.4-19.8,20.6-42.1,26-65.1c1-4.1-0.5-5.4-4.4-5.1c-2,0.1-4,0-6.1,0
	c-20,0-30.4-10.2-30.4-30.1c0-45.8,0-91.7,0-137.5c0-2.6,0.2-5.1,0.6-7.7c1.7-12,10.6-20.9,22.7-21.9c4.7-0.4,5.5-2.4,4.8-6.4
	c-12.1-67.6-50.6-112.3-116-133.2c-23.6-7.6-48.3-7.6-72.7-5.8c-57.9,4.2-101.3,32.1-131,81.7c-10.6,17.7-16.7,37.1-19.8,57.4
	c-0.5,3.1,0.1,5.7,4.2,6.3c15.1,2.3,23.7,11.7,23.8,26.9c0.2,47.7,0.2,95.4,0,143c-0.1,16.9-11.1,27.3-28,27.4
	c-19.5,0.1-39-0.6-58.5,0.2c-24.8,1-42.7-14.7-49.7-36.6c-2.1-6.4-3.1-13.1-4.7-19.7c0-22.8,0-45.7,0-68.5c0.4-2.1,0.9-4.3,1.1-6.4
	c2-17.1,5.7-33.7,15.9-48.1c8.5-11.9,19.6-19.2,34.9-18.4c4.6,0.3,9.2,0,13.8,0.1c4.3,0.1,6.7-1.5,7.4-6.2
	c3.3-24,9.5-47.1,20.7-68.7c21-40.5,52-70.9,93.1-90.7c25.1-12.1,51.8-18.1,79.7-19.4c39.5-1.8,77.8,2.3,113.7,20.2
	c41,20.5,71.8,51.2,92.3,92.2c10.4,20.9,16.6,43.1,19.5,66.2c0.6,4.8,3.1,6.2,7.4,6.2c5.2,0,10.3,0.2,15.5,0
	c10.4-0.4,19,3.6,26.3,10.6c10.7,10.1,16.2,23.1,19.5,37c2,8.3,3.1,16.9,4.6,25.3C770.7,306,770.7,328.9,770.7,351.7z"/>
</svg>
