<?xml version="1.0" encoding="utf-8"?>
<!-- Generator: Adobe Illustrator 18.1.1, SVG Export Plug-In . SVG Version: 6.00 Build 0)  -->
<svg version="1.1" id="Layer_1" xmlns="http://www.w3.org/2000/svg" xmlns:xlink="http://www.w3.org/1999/xlink" x="0px" y="0px"
	 viewBox="0 0 960 560" enable-background="new 0 0 960 560" xml:space="preserve">
<path d="M616.5-1.1c3.4,2.8,8,4.9,10,8.4c3.4,6,0.5,11.4-4.2,16.1C600,45.6,577.8,68,555.4,90.1c-3,3-3.6,5.4-2.3,9.5
	c7.7,23.4,15.1,46.9,22.4,70.4c1,3.3,2.5,5,6,6.1c23.9,7.4,47.7,15,71.5,22.7c3.4,1.1,5.5,0.5,8-2.1c22.3-22.5,44.6-44.9,67.2-67.1
	c2.6-2.5,6.2-4.8,9.7-5.4c8-1.4,14.1,4.3,14.5,13.2c2.3,46.6-12.4,86.8-46.2,119.2c-32.6,31.3-72.2,44.2-116.9,40.5
	c-11.9-1-23.6-4.7-35.2-7.6c-2.9-0.7-4.6-0.5-6.6,1.7c-72.7,78.5-145.6,157-218.3,235.5c-10.2,11-20.1,22.5-34.6,28.1
	c-6.4,2.5-13.1,4.2-19.6,6.2c-6.2,0-12.4,0-18.7,0c-0.8-0.3-1.7-0.8-2.5-1c-29.5-5.5-49.4-22.5-58-51.1
	c-8.5-28.4-1.6-53.9,19.8-74.3c81-76.8,162.3-153.3,243.6-229.8c3-2.8,3.7-5,2.4-8.9c-9.2-26.6-10.8-53.8-4.1-81
	c13.7-55.4,48.1-92,102.3-109.6C570,2.3,580.8,1,591.3-1.1C599.7-1.1,608.1-1.1,616.5-1.1z M288.3,490.3
	c0.1-14.8-11.9-26.9-26.6-26.9c-14.7,0-26.9,12.2-26.8,26.8c0.1,14.5,11.9,26.4,26.4,26.7C275.8,517.2,288.2,505,288.3,490.3z"/>
</svg>
