<?xml version="1.0" encoding="utf-8"?>
<!-- Generator: Adobe Illustrator 18.1.1, SVG Export Plug-In . SVG Version: 6.00 Build 0)  -->
<svg version="1.1" id="Layer_1" xmlns="http://www.w3.org/2000/svg" xmlns:xlink="http://www.w3.org/1999/xlink" x="0px" y="0px"
	 viewBox="0 0 640 480" style="enable-background:new 0 0 640 480;" xml:space="preserve">
<style type="text/css">
	.st0{fill:#231F20;}
	.st1{fill:none;}
</style>
<g>
	<path class="st0" d="M295.4,252.5c22.7-22.7,36.7-54,36.7-88.7c0-69.3-56.1-125.4-125.4-125.4c-34.6,0-66,14-88.7,36.7L295.4,252.5
		z"/>
	<path class="st0" d="M221.3,112.5l36.9,36.9c2.8,2.8,7.3,2.8,10,0l96.9-96.9c2.8-2.8,2.8-7.3,0-10L328.3,5.5c-2.8-2.8-7.3-2.8-10,0
		l-96.9,96.9C218.5,105.2,218.5,109.7,221.3,112.5z"/>
	<path class="st1" d="M471.4,235.3l-9.5-9.5c-5,3.9-8.2,10-8.2,16.8c0,11.8,9.6,21.4,21.4,21.4c11.8,0,21.4-9.6,21.4-21.4
		c0-0.4,0-0.7-0.1-1C487.8,244.2,478.1,242.1,471.4,235.3z"/>
	<path d="M511.9,206.9c-1.2-2.6-2.9-5-5-7.2L334.3,27.2c-9.8-9.8-25.7-9.8-35.6,0c-9.8,9.8-9.8,25.7,0,35.6l141.9,141.9
		c9.1-8.2,21.2-13.3,34.4-13.3C489.5,191.3,502.6,197.3,511.9,206.9z"/>
	<path d="M511.9,278.4c9-9.3,14.5-21.8,14.5-35.7c0-13.9-5.5-26.5-14.5-35.7c4.3,9.3,2.7,20.7-5,28.4c-3.1,3.1-6.7,5.2-10.6,6.3
		c0,0.3,0.1,0.7,0.1,1c0,0.4,0,0.7-0.1,1c3.9,1.2,7.5,3.3,10.6,6.3C514.6,257.7,516.3,269.1,511.9,278.4z"/>
	<path d="M453.7,242.7c0-6.8,3.2-12.9,8.2-16.8l-21.3-21.3c-10.4,9.4-17,23-17,38.1s6.6,28.7,17,38.1l21.3-21.3
		C456.9,255.6,453.7,249.5,453.7,242.7z"/>
	<path d="M506.9,250c-3.1-3.1-6.7-5.2-10.6-6.3c-0.5,11.3-9.9,20.3-21.3,20.3c-5,0-9.5-1.7-13.1-4.5l-21.3,21.3L290.2,431.2
		c-2.2,33.5,28.6,42.5,44.1,27l172.6-172.6c2.1-2.1,3.8-4.6,5-7.2C516.3,269.1,514.6,257.7,506.9,250z"/>
	<path d="M475.1,221.3c11.4,0,20.8,9,21.3,20.3c3.9-1.2,7.5-3.3,10.6-6.3c7.7-7.7,9.3-19.1,5-28.4c-9.3-9.6-22.4-15.6-36.9-15.6
		c-13.2,0-25.3,5.1-34.4,13.3l21.3,21.3C465.6,223,470.1,221.3,475.1,221.3z"/>
	<path d="M418,477.3H211.4c-3.1,0-5.6-2.5-5.6-5.6v-39.2c0-3.1,2.5-5.6,5.6-5.6H418c3.1,0,5.6,2.5,5.6,5.6v39.2
		C423.7,474.8,421.1,477.3,418,477.3z"/>
	<circle class="st0" cx="225.1" cy="150" r="56.9"/>
</g>
</svg>
